<svg width="48" height="48" viewBox="0 0 48 48" fill="none" xmlns="http://www.w3.org/2000/svg">
<rect width="48" height="48" rx="8" fill="#7CCCCC"/>
<mask id="mask0_603_37" style="mask-type:alpha" maskUnits="userSpaceOnUse" x="8" y="8" width="32" height="32">
<rect x="8" y="8" width="32" height="32" fill="#D9D9D9"/>
</mask>
<g mask="url(#mask0_603_37)">
<path d="M24 30.6667V28.6667H27.3333V25.3333H29.3333V30.6667H24ZM18.6667 22.6667V17.3333H24V19.3333H20.6667V22.6667H18.6667ZM17.3333 38.6667C16.6 38.6667 15.9724 38.4058 15.4507 37.884C14.928 37.3613 14.6667 36.7333 14.6667 36V12C14.6667 11.2667 14.928 10.6387 15.4507 10.116C15.9724 9.59423 16.6 9.33334 17.3333 9.33334H30.6667C31.4 9.33334 32.028 9.59423 32.5507 10.116C33.0724 10.6387 33.3333 11.2667 33.3333 12V36C33.3333 36.7333 33.0724 37.3613 32.5507 37.884C32.028 38.4058 31.4 38.6667 30.6667 38.6667H17.3333ZM17.3333 32H30.6667V16H17.3333V32Z" fill="#EEEEEE"/>
</g>
</svg>
