<svg width="225" height="48" viewBox="0 0 225 48" fill="none" xmlns="http://www.w3.org/2000/svg">
<rect width="48" height="48" rx="8" fill="#7CCCCC"/>
<path d="M70.44 23.76H62.792C62.28 23.76 61.768 23.5467 61.256 23.12L60.392 22.384C59.944 22.0213 59.72 21.5947 59.72 21.104V14.48C59.72 13.84 59.976 13.3067 60.488 12.88L61.256 12.24C61.768 11.8133 62.28 11.6 62.792 11.6H71.304C71.816 11.6 72.328 11.8133 72.84 12.24L73.608 12.88C74.12 13.3067 74.376 13.84 74.376 14.48V15.76H71.688V15.152C71.688 14.832 71.6667 14.6293 71.624 14.544C71.6027 14.4373 71.496 14.3093 71.304 14.16C71.112 14.0107 70.9627 13.9253 70.856 13.904C70.7493 13.8613 70.504 13.84 70.12 13.84H63.976C63.592 13.84 63.3467 13.8613 63.24 13.904C63.1333 13.9253 62.984 14.0107 62.792 14.16C62.6 14.3093 62.4827 14.4373 62.44 14.544C62.4187 14.6293 62.408 14.832 62.408 15.152V20.208C62.408 20.528 62.4187 20.7413 62.44 20.848C62.4827 20.9333 62.6 21.0507 62.792 21.2C62.984 21.3493 63.1333 21.4453 63.24 21.488C63.3467 21.5093 63.592 21.52 63.976 21.52H71.624C72.136 21.52 72.648 21.7333 73.16 22.16L73.928 22.8C74.44 23.2267 74.696 23.76 74.696 24.4V31.12C74.696 31.76 74.44 32.2933 73.928 32.72L73.16 33.36C72.648 33.7867 72.136 34 71.624 34H62.472C61.96 34 61.448 33.7867 60.936 33.36L60.168 32.72C59.656 32.2933 59.4 31.76 59.4 31.12V29.84H62.088V30.448C62.088 30.768 62.0987 30.9813 62.12 31.088C62.1627 31.1733 62.28 31.2907 62.472 31.44C62.664 31.5893 62.8133 31.6853 62.92 31.728C63.0267 31.7493 63.272 31.76 63.656 31.76H70.44C70.824 31.76 71.0693 31.7493 71.176 31.728C71.2827 31.6853 71.432 31.5893 71.624 31.44C71.816 31.2907 71.9227 31.1733 71.944 31.088C71.9867 30.9813 72.008 30.768 72.008 30.448V25.072C72.008 24.752 71.9867 24.5493 71.944 24.464C71.9227 24.3573 71.816 24.2293 71.624 24.08C71.432 23.9307 71.2827 23.8453 71.176 23.824C71.0693 23.7813 70.824 23.76 70.44 23.76ZM91.8138 22.16H89.1258V21.552C89.1258 21.232 89.1044 21.0293 89.0618 20.944C89.0404 20.8373 88.9338 20.7093 88.7418 20.56C88.5498 20.4107 88.4004 20.3253 88.2938 20.304C88.1871 20.2613 87.9418 20.24 87.5578 20.24H83.2698C82.8858 20.24 82.6404 20.2613 82.5338 20.304C82.4271 20.3253 82.2778 20.4107 82.0858 20.56C81.8938 20.7093 81.7764 20.8373 81.7338 20.944C81.7124 21.0293 81.7018 21.232 81.7018 21.552V30.448C81.7018 30.768 81.7124 30.9813 81.7338 31.088C81.7764 31.1733 81.8938 31.2907 82.0858 31.44C82.2778 31.5893 82.4271 31.6853 82.5338 31.728C82.6404 31.7493 82.8858 31.76 83.2698 31.76H87.5578C87.9418 31.76 88.1871 31.7493 88.2938 31.728C88.4004 31.6853 88.5498 31.5893 88.7418 31.44C88.9338 31.2907 89.0404 31.1733 89.0618 31.088C89.1044 30.9813 89.1258 30.768 89.1258 30.448V29.84H91.8138V31.12C91.8138 31.76 91.5578 32.2933 91.0458 32.72L90.2778 33.36C89.7658 33.7867 89.2538 34 88.7418 34H82.0858C81.5738 34 81.0618 33.7867 80.5498 33.36L79.7818 32.72C79.2698 32.2933 79.0138 31.76 79.0138 31.12V20.88C79.0138 20.24 79.2698 19.7067 79.7818 19.28L80.5498 18.64C81.0618 18.2133 81.5738 18 82.0858 18H88.7418C89.2538 18 89.7658 18.2133 90.2778 18.64L91.0458 19.28C91.5578 19.7067 91.8138 20.24 91.8138 20.88V22.16ZM95.4825 18H96.6025C96.9865 18 97.2425 18.032 97.3705 18.096C97.5198 18.1387 97.7225 18.2667 97.9785 18.48C98.3198 18.7573 98.4905 19.024 98.4905 19.28H98.6185C98.6185 19.024 98.8532 18.7573 99.3225 18.48C99.7065 18.2453 99.9625 18.1067 100.091 18.064C100.24 18.0213 100.507 18 100.891 18H103.835C104.347 18 104.859 18.2133 105.371 18.64L106.139 19.28L104.219 20.88L103.835 20.56C103.643 20.4107 103.493 20.3253 103.387 20.304C103.28 20.2613 103.035 20.24 102.651 20.24H101.275C100.891 20.24 100.624 20.2613 100.475 20.304C100.347 20.3467 100.091 20.4853 99.7065 20.72C99.3225 20.9547 99.0985 21.1253 99.0345 21.232C98.9705 21.3387 98.9385 21.552 98.9385 21.872V34H96.2505V21.552C96.2505 21.232 96.2292 21.0293 96.1865 20.944C96.1652 20.8373 96.0585 20.7093 95.8665 20.56C95.6745 20.4107 95.5572 20.2933 95.5145 20.208C95.4932 20.1013 95.4825 19.888 95.4825 19.568V18ZM120.89 31.12L122.81 32.72L122.042 33.36C121.658 33.68 121.391 33.872 121.242 33.936C121.114 33.9787 120.858 34 120.474 34H111.93C111.418 34 110.906 33.7867 110.394 33.36L109.626 32.72C109.114 32.2933 108.858 31.76 108.858 31.12V20.88C108.858 20.24 109.114 19.7067 109.626 19.28L110.394 18.64C110.906 18.2133 111.418 18 111.93 18H119.386C119.812 18 120.324 18.2133 120.922 18.64L121.722 19.28C122.234 19.664 122.49 20.1973 122.49 20.88V27.44H111.546V30.448C111.546 30.768 111.556 30.9813 111.578 31.088C111.62 31.1733 111.738 31.2907 111.93 31.44C112.122 31.5893 112.271 31.6853 112.378 31.728C112.484 31.7493 112.73 31.76 113.114 31.76H119.322C119.706 31.76 119.962 31.7387 120.09 31.696C120.239 31.632 120.506 31.44 120.89 31.12ZM119.802 25.36V21.552C119.802 21.232 119.78 21.0293 119.738 20.944C119.716 20.8373 119.61 20.7093 119.418 20.56C119.226 20.4107 119.076 20.3253 118.97 20.304C118.863 20.2613 118.618 20.24 118.234 20.24H113.114C112.73 20.24 112.484 20.2613 112.378 20.304C112.271 20.3253 112.122 20.4107 111.93 20.56C111.738 20.7093 111.62 20.8373 111.578 20.944C111.556 21.0293 111.546 21.232 111.546 21.552V25.36H119.802ZM138.358 31.12L140.278 32.72L139.51 33.36C139.126 33.68 138.86 33.872 138.71 33.936C138.582 33.9787 138.326 34 137.942 34H129.398C128.886 34 128.374 33.7867 127.862 33.36L127.094 32.72C126.582 32.2933 126.326 31.76 126.326 31.12V20.88C126.326 20.24 126.582 19.7067 127.094 19.28L127.862 18.64C128.374 18.2133 128.886 18 129.398 18H136.854C137.281 18 137.793 18.2133 138.39 18.64L139.19 19.28C139.702 19.664 139.958 20.1973 139.958 20.88V27.44H129.014V30.448C129.014 30.768 129.025 30.9813 129.046 31.088C129.089 31.1733 129.206 31.2907 129.398 31.44C129.59 31.5893 129.74 31.6853 129.846 31.728C129.953 31.7493 130.198 31.76 130.582 31.76H136.79C137.174 31.76 137.43 31.7387 137.558 31.696C137.708 31.632 137.974 31.44 138.358 31.12ZM137.27 25.36V21.552C137.27 21.232 137.249 21.0293 137.206 20.944C137.185 20.8373 137.078 20.7093 136.886 20.56C136.694 20.4107 136.545 20.3253 136.438 20.304C136.332 20.2613 136.086 20.24 135.702 20.24H130.582C130.198 20.24 129.953 20.2613 129.846 20.304C129.74 20.3253 129.59 20.4107 129.398 20.56C129.206 20.7093 129.089 20.8373 129.046 20.944C129.025 21.0293 129.014 21.232 129.014 21.552V25.36H137.27ZM143.795 18H144.915C145.299 18 145.555 18.032 145.683 18.096C145.832 18.1387 146.035 18.2667 146.291 18.48C146.632 18.7573 146.803 19.024 146.803 19.28H146.931C146.931 19.024 147.166 18.7573 147.635 18.48C148.019 18.2453 148.275 18.1067 148.403 18.064C148.552 18.0213 148.819 18 149.203 18H154.867C155.379 18 155.891 18.2133 156.403 18.64L157.171 19.28C157.683 19.7067 157.939 20.24 157.939 20.88V34H155.251V21.552C155.251 21.232 155.23 21.0293 155.187 20.944C155.166 20.8373 155.059 20.7093 154.867 20.56C154.675 20.4107 154.526 20.3253 154.419 20.304C154.312 20.2613 154.067 20.24 153.683 20.24H149.587C149.203 20.24 148.936 20.2613 148.787 20.304C148.659 20.3467 148.403 20.4853 148.019 20.72C147.635 20.9547 147.411 21.1253 147.347 21.232C147.283 21.3387 147.251 21.552 147.251 21.872V34H144.563V21.552C144.563 21.232 144.542 21.0293 144.499 20.944C144.478 20.8373 144.371 20.7093 144.179 20.56C143.987 20.4107 143.87 20.2933 143.827 20.208C143.806 20.1013 143.795 19.888 143.795 19.568V18ZM171.524 20.944L168.356 34H164.868L160.324 18H162.916L166.372 31.28C166.478 31.6 166.532 31.856 166.532 32.048H166.66C166.66 31.856 166.713 31.6 166.82 31.28L170.116 18H173.38L176.676 31.28C176.782 31.7067 176.836 31.9627 176.836 32.048H176.964C176.964 31.856 177.017 31.6 177.124 31.28L180.58 18H183.172L178.628 34H175.14L171.972 20.944C171.865 20.5173 171.812 20.2613 171.812 20.176H171.684C171.684 20.2613 171.63 20.5173 171.524 20.944ZM188.392 34H185.704V18H188.392V34ZM188.68 13.008V13.264C188.68 13.6693 188.659 13.9253 188.616 14.032C188.595 14.1387 188.499 14.2667 188.328 14.416C188.158 14.5867 187.763 14.672 187.144 14.672H186.984C186.515 14.672 186.227 14.6613 186.12 14.64C186.014 14.6187 185.886 14.544 185.736 14.416C185.587 14.2667 185.491 14.1387 185.448 14.032C185.427 13.9253 185.416 13.6693 185.416 13.264V13.008C185.416 12.6027 185.427 12.3467 185.448 12.24C185.491 12.1333 185.598 12.0053 185.768 11.856C185.896 11.728 186.014 11.6533 186.12 11.632C186.227 11.6107 186.515 11.6 186.984 11.6H187.112C187.752 11.6 188.168 11.6853 188.36 11.856C188.51 12.0053 188.595 12.1333 188.616 12.24C188.659 12.3467 188.68 12.6027 188.68 13.008ZM202.534 24.72C203.046 24.72 203.558 24.9333 204.07 25.36L204.838 26C205.35 26.4267 205.606 26.96 205.606 27.6V31.12C205.606 31.76 205.35 32.2933 204.838 32.72L204.07 33.36C203.558 33.7867 203.046 34 202.534 34H195.43C194.918 34 194.406 33.7867 193.894 33.36L193.126 32.72C192.614 32.2933 192.358 31.76 192.358 31.12V29.84H195.046V30.448C195.046 30.768 195.056 30.9813 195.078 31.088C195.12 31.1733 195.238 31.2907 195.43 31.44C195.622 31.5893 195.771 31.6853 195.878 31.728C195.984 31.7493 196.23 31.76 196.614 31.76H201.35C201.734 31.76 201.979 31.7493 202.086 31.728C202.192 31.6853 202.342 31.5893 202.534 31.44C202.726 31.2907 202.832 31.1733 202.854 31.088C202.896 30.9813 202.918 30.768 202.918 30.448V27.856C202.896 27.6853 202.768 27.4933 202.534 27.28C202.342 27.1307 202.192 27.0453 202.086 27.024C201.979 26.9813 201.734 26.96 201.35 26.96H195.75C195.238 26.96 194.726 26.7467 194.214 26.32L193.446 25.68C192.934 25.2533 192.678 24.72 192.678 24.08V20.88C192.678 20.24 192.934 19.7067 193.446 19.28L194.214 18.64C194.726 18.2133 195.238 18 195.75 18H202.534C203.046 18 203.558 18.2133 204.07 18.64L204.838 19.28C205.35 19.7067 205.606 20.24 205.606 20.88V22.16H202.918V21.552C202.918 21.232 202.896 21.0293 202.854 20.944C202.832 20.8373 202.726 20.7093 202.534 20.56C202.342 20.4107 202.192 20.3253 202.086 20.304C201.979 20.2613 201.734 20.24 201.35 20.24H196.934C196.55 20.24 196.304 20.2613 196.198 20.304C196.091 20.3253 195.942 20.4107 195.75 20.56C195.558 20.7093 195.44 20.8373 195.398 20.944C195.376 21.0293 195.366 21.232 195.366 21.552V23.408C195.366 23.728 195.376 23.9413 195.398 24.048C195.44 24.1333 195.558 24.2507 195.75 24.4C195.942 24.5493 196.091 24.6453 196.198 24.688C196.304 24.7093 196.55 24.72 196.934 24.72H202.534ZM221.483 31.12L223.403 32.72L222.635 33.36C222.251 33.68 221.985 33.872 221.835 33.936C221.707 33.9787 221.451 34 221.067 34H212.523C212.011 34 211.499 33.7867 210.987 33.36L210.219 32.72C209.707 32.2933 209.451 31.76 209.451 31.12V20.88C209.451 20.24 209.707 19.7067 210.219 19.28L210.987 18.64C211.499 18.2133 212.011 18 212.523 18H219.979C220.406 18 220.918 18.2133 221.515 18.64L222.315 19.28C222.827 19.664 223.083 20.1973 223.083 20.88V27.44H212.139V30.448C212.139 30.768 212.15 30.9813 212.171 31.088C212.214 31.1733 212.331 31.2907 212.523 31.44C212.715 31.5893 212.865 31.6853 212.971 31.728C213.078 31.7493 213.323 31.76 213.707 31.76H219.915C220.299 31.76 220.555 31.7387 220.683 31.696C220.833 31.632 221.099 31.44 221.483 31.12ZM220.395 25.36V21.552C220.395 21.232 220.374 21.0293 220.331 20.944C220.31 20.8373 220.203 20.7093 220.011 20.56C219.819 20.4107 219.67 20.3253 219.563 20.304C219.457 20.2613 219.211 20.24 218.827 20.24H213.707C213.323 20.24 213.078 20.2613 212.971 20.304C212.865 20.3253 212.715 20.4107 212.523 20.56C212.331 20.7093 212.214 20.8373 212.171 20.944C212.15 21.0293 212.139 21.232 212.139 21.552V25.36H220.395Z" fill="url(#paint0_linear_601_34)"/>
<mask id="mask0_601_34" style="mask-type:alpha" maskUnits="userSpaceOnUse" x="8" y="8" width="32" height="32">
<rect x="8" y="8" width="32" height="32" fill="#D9D9D9"/>
</mask>
<g mask="url(#mask0_601_34)">
<path d="M24 30.6667V28.6667H27.3333V25.3333H29.3333V30.6667H24ZM18.6667 22.6667V17.3333H24V19.3333H20.6667V22.6667H18.6667ZM17.3333 38.6667C16.6 38.6667 15.9724 38.4058 15.4507 37.884C14.928 37.3613 14.6667 36.7333 14.6667 36V12C14.6667 11.2667 14.928 10.6387 15.4507 10.116C15.9724 9.59423 16.6 9.33334 17.3333 9.33334H30.6667C31.4 9.33334 32.028 9.59423 32.5507 10.116C33.0724 10.6387 33.3333 11.2667 33.3333 12V36C33.3333 36.7333 33.0724 37.3613 32.5507 37.884C32.028 38.4058 31.4 38.6667 30.6667 38.6667H17.3333ZM17.3333 32H30.6667V16H17.3333V32Z" fill="#EEEEEE"/>
</g>
<defs>
<linearGradient id="paint0_linear_601_34" x1="61" y1="21.5" x2="61" y2="34" gradientUnits="userSpaceOnUse">
<stop stop-color="#7CCCCC"/>
<stop offset="0.489583" stop-color="#7CCCCC"/>
<stop offset="0.489683" stop-color="white"/>
<stop offset="1" stop-color="white"/>
<stop offset="1" stop-color="white"/>
</linearGradient>
</defs>
</svg>
